<svg width="20" height="20" viewBox="0 0 20 20" fill="none" xmlns="http://www.w3.org/2000/svg">
<path fill-rule="evenodd" clip-rule="evenodd" d="M9.2908 2.31748C9.75353 2.18063 10.2465 2.18063 10.7092 2.31748C11.0166 2.40836 11.2723 2.56496 11.5116 2.74385C11.737 2.91243 11.9912 3.13486 12.2838 3.39086L16.305 6.90946C16.3229 6.92506 16.3406 6.94053 16.3581 6.95587C16.6394 7.20157 16.8855 7.41655 17.0684 7.68591C17.2284 7.92164 17.3466 8.18247 17.4185 8.45768C17.5008 8.77244 17.5005 9.09924 17.5001 9.47212C17.5001 9.49576 17.5001 9.51958 17.5001 9.5436V14.1923C17.5001 14.5584 17.5001 14.8742 17.4823 15.1355C17.4635 15.4104 17.4222 15.6852 17.3097 15.9568C17.0562 16.5687 16.5702 17.0562 15.957 17.3102C15.6854 17.4227 15.4103 17.4639 15.1354 17.4827C14.8742 17.5005 14.5587 17.5005 14.1931 17.5005H14.1399C13.7744 17.5005 13.4589 17.5005 13.1979 17.4827C12.923 17.4639 12.6481 17.4227 12.3765 17.3102C11.7635 17.0562 11.2773 16.5689 11.0237 15.9569C10.9112 15.6852 10.87 15.4103 10.8512 15.1355C10.8334 14.8744 10.8334 14.559 10.8334 14.1935V13.3335C10.8334 12.8732 10.4603 12.5001 10.0001 12.5001C9.53986 12.5001 9.16677 12.8732 9.16677 13.3335L9.16677 14.1922C9.16678 14.5583 9.16679 14.8742 9.14893 15.1355C9.13015 15.4104 9.08886 15.6853 8.97638 15.9569C8.72288 16.5689 8.23683 17.0562 7.62369 17.3102C7.35202 17.4227 7.07694 17.4639 6.80206 17.4827C6.5409 17.5005 6.22538 17.5005 5.85979 17.5005H5.80656C5.44102 17.5005 5.12561 17.5005 4.86457 17.4827C4.58971 17.4639 4.31478 17.4227 4.04318 17.3102C3.43005 17.0562 2.94391 16.5688 2.6904 15.9568C2.57791 15.6852 2.53665 15.4103 2.51789 15.1355C2.50008 14.8745 2.50009 14.5591 2.5001 14.1935L2.5001 9.5436C2.5001 9.51804 2.50008 9.49268 2.50005 9.46753C2.49968 9.09756 2.49935 8.77137 2.58132 8.45768C2.65364 8.18088 2.77295 7.92027 2.93204 7.68591C3.11496 7.41645 3.36107 7.20146 3.64259 6.95555C3.66004 6.94031 3.67762 6.92495 3.69533 6.90946L7.69665 3.4083L7.71887 3.38885C8.01051 3.13365 8.26405 2.91179 8.489 2.74358C8.72802 2.56486 8.98357 2.40833 9.2908 2.31748ZM10.2366 3.91572C10.0824 3.87011 9.91769 3.87011 9.76344 3.91572C9.72082 3.92832 9.64614 3.95943 9.48707 4.07837C9.31963 4.20357 9.11439 4.38239 8.79416 4.66259L4.79283 8.16375C4.42612 8.48462 4.35731 8.55377 4.311 8.62199C4.25691 8.70168 4.21747 8.78859 4.19384 8.87904C4.17309 8.95842 4.16677 9.05467 4.16677 9.5436V14.1669C4.16677 14.5666 4.16722 14.8246 4.18069 15.022C4.19365 15.2119 4.21583 15.2843 4.2302 15.319C4.31501 15.5237 4.47735 15.686 4.68098 15.7704C4.71566 15.7847 4.78802 15.8069 4.97802 15.8199C5.1755 15.8333 5.43353 15.8338 5.83322 15.8338C6.2329 15.8338 6.49105 15.8333 6.68866 15.8199C6.87885 15.8069 6.95127 15.7847 6.98589 15.7704C7.18951 15.686 7.35177 15.5238 7.43658 15.319C7.45097 15.2843 7.47316 15.2119 7.48614 15.0219C7.49963 14.8245 7.5001 14.5664 7.5001 14.1668V13.3335C7.5001 11.9528 8.61939 10.8335 10.0001 10.8335C11.3808 10.8335 12.5001 11.9528 12.5001 13.3335V14.1668C12.5001 14.5665 12.5006 14.8245 12.514 15.022C12.527 15.212 12.5492 15.2844 12.5635 15.319C12.6483 15.5237 12.8106 15.686 13.0143 15.7704C13.049 15.7847 13.1214 15.8069 13.3114 15.8199C13.5088 15.8333 13.7669 15.8338 14.1666 15.8338C14.5662 15.8338 14.8244 15.8333 15.022 15.8199C15.2122 15.8069 15.2846 15.7847 15.3192 15.7704C15.5228 15.686 15.6851 15.5238 15.7699 15.319C15.7843 15.2842 15.8065 15.2118 15.8195 15.0219C15.833 14.8245 15.8334 14.5665 15.8334 14.1669V9.5436C15.8334 9.05592 15.8268 8.95872 15.806 8.87904C15.7819 8.787 15.7426 8.70031 15.6894 8.62199C15.6431 8.55379 15.5743 8.48471 15.2075 8.16375L11.2075 4.66375C10.8869 4.38317 10.6813 4.20407 10.5136 4.0787C10.3542 3.95957 10.2794 3.92837 10.2366 3.91572Z" fill="black"/>
</svg>
